<?xml version="1.0" standalone="no"?>
<!DOCTYPE svg PUBLIC "-//W3C//DTD SVG 1.1//EN" "http://www.w3.org/Graphics/SVG/1.1/DTD/svg11.dtd">

<svg width="799" height="597" version="1.1" xmlns="http://www.w3.org/2000/svg">
	<rect width="100%" height="100%" fill="white" />
	<ellipse stroke="black" stroke-width="1" fill="none" cx="396.5" cy="173.5" rx="75" ry="75"/>
	<text x="333.5" y="179.5" font-family="Times New Roman" font-size="20">Voltaje correcto</text>
	<ellipse stroke="black" stroke-width="1" fill="none" cx="396.5" cy="444.5" rx="75" ry="75"/>
	<text x="325.5" y="450.5" font-family="Times New Roman" font-size="20">Voltaje incorrecto</text>
	<ellipse stroke="black" stroke-width="1" fill="none" cx="93.5" cy="96.5" rx="75" ry="75"/>
	<text x="70.5" y="102.5" font-family="Times New Roman" font-size="20">Inicio</text>
	<path stroke="black" stroke-width="1" fill="none" d="M 326.418,420.588 A 135.686,135.686 0 0 1 326.418,197.412"/>
	<polygon fill="black" stroke-width="1" points="326.418,197.412 316.994,197.851 322.683,206.075"/>
	<text x="114.5" y="315.5" font-family="Times New Roman" font-size="20">12.5&lt;Voltaje&lt;14.5</text>
	<path stroke="black" stroke-width="1" fill="none" d="M 416.212,101.44 A 56.25,56.25 0 1 1 465.686,145.314"/>
	<text x="513.5" y="38.5" font-family="Times New Roman" font-size="20">12.5&lt;Voltaje&lt;14.5</text>
	<polygon fill="black" stroke-width="1" points="465.686,145.314 474.575,148.474 472.422,138.708"/>
	<path stroke="black" stroke-width="1" fill="none" d="M 466.276,471.193 A 56.25,56.25 0 1 1 417.755,516.12"/>
	<text x="516.5" y="589.5" font-family="Times New Roman" font-size="20">Voltaje &lt; 12.5 || Voltaje &gt; 14.5</text>
	<polygon fill="black" stroke-width="1" points="417.755,516.12 413.737,524.655 423.667,523.472"/>
	<path stroke="black" stroke-width="1" fill="none" d="M 165.683,77.149 A 255.819,255.819 0 0 1 342.313,122.035"/>
	<polygon fill="black" stroke-width="1" points="342.313,122.035 338.647,113.343 332.893,121.522"/>
	<text x="257.5" y="72.5" font-family="Times New Roman" font-size="20">SET</text>
	<path stroke="black" stroke-width="1" fill="none" d="M 465.936,199.237 A 135.925,135.925 0 0 1 465.936,418.763"/>
	<polygon fill="black" stroke-width="1" points="465.936,418.763 475.345,418.082 469.447,410.007"/>
	<text x="526.5" y="315.5" font-family="Times New Roman" font-size="20">Voltaje &lt; 12.5 || Voltaje &gt; 14.5</text>
</svg>
