<?xml version="1.0" standalone="no"?>
<!DOCTYPE svg PUBLIC "-//W3C//DTD SVG 1.1//EN" "http://www.w3.org/Graphics/SVG/1.1/DTD/svg11.dtd">

<svg width="799" height="594" version="1.1" xmlns="http://www.w3.org/2000/svg">
	<ellipse stroke="black" stroke-width="1" fill="none" cx="396.5" cy="174.5" rx="64" ry="64"/>
	<text x="339.5" y="180.5" font-family="Times New Roman" font-size="20">Puerta cerrada</text>
	<ellipse stroke="black" stroke-width="1" fill="none" cx="396.5" cy="457.5" rx="64" ry="64"/>
	<text x="341.5" y="463.5" font-family="Times New Roman" font-size="20">Puerta abierta</text>
	<ellipse stroke="black" stroke-width="1" fill="none" cx="102.5" cy="80.5" rx="64" ry="64"/>
	<text x="79.5" y="86.5" font-family="Times New Roman" font-size="20">Inicio</text>
	<path stroke="black" stroke-width="1" fill="none" d="M 163.727,62.582 A 230.685,230.685 0 0 1 357.025,124.385"/>
	<polygon fill="black" stroke-width="1" points="357.025,124.385 354.716,115.238 347.792,122.452"/>
	<text x="269.5" y="61.5" font-family="Times New Roman" font-size="20">SET</text>
	<path stroke="black" stroke-width="1" fill="none" d="M 450.34,208.202 A 150.446,150.446 0 0 1 450.34,423.798"/>
	<polygon fill="black" stroke-width="1" points="450.34,423.798 459.56,421.8 452.584,414.634"/>
	<text x="500.5" y="322.5" font-family="Times New Roman" font-size="20">token encontrado</text>
	<path stroke="black" stroke-width="1" fill="none" d="M 340.674,427.246 A 147.202,147.202 0 0 1 340.674,204.754"/>
	<polygon fill="black" stroke-width="1" points="340.674,204.754 331.353,206.214 337.902,213.771"/>
	<text x="102.5" y="322.5" font-family="Times New Roman" font-size="20">Tiempo &gt; 10 segundos</text>
	<path stroke="black" stroke-width="1" fill="none" d="M 456.007,480.37 A 48,48 0 1 1 414.544,518.643"/>
	<text x="499.5" y="584.5" font-family="Times New Roman" font-size="20">Tiempo &lt; 10 segundos</text>
	<polygon fill="black" stroke-width="1" points="414.544,518.643 410.513,527.173 420.444,526.004"/>
	<path stroke="black" stroke-width="1" fill="none" d="M 413.881,113.165 A 48,48 0 1 1 455.756,150.987"/>
	<text x="498.5" y="58.5" font-family="Times New Roman" font-size="20">token no encontrado</text>
	<polygon fill="black" stroke-width="1" points="455.756,150.987 464.616,154.229 462.552,144.444"/>
</svg>
